<svg xmlns="http://www.w3.org/2000/svg" width="1200" height="630" viewBox="0 0 1200 630" role="img" aria-label="Les 4 Tempéraments">
  <defs>
    <linearGradient id="bg-radial-a" x1="0" y1="0" x2="1" y2="1">
      <stop offset="0%" stop-color="#ffffff" stop-opacity="0.04"/>
      <stop offset="100%" stop-color="#ffffff" stop-opacity="0"/>
    </linearGradient>
    <linearGradient id="badge-bg" x1="0" y1="0" x2="0" y2="1">
      <stop offset="0%" stop-color="#2a2a2a"/>
      <stop offset="50%" stop-color="#111111"/>
      <stop offset="100%" stop-color="#0a0a0a"/>
    </linearGradient>
    <linearGradient id="chrome-shine" x1="0" y1="0" x2="1" y2="1">
      <stop offset="0%" stop-color="#ffffff" stop-opacity="0.14"/>
      <stop offset="100%" stop-color="#ffffff" stop-opacity="0"/>
    </linearGradient>
    <filter id="grain" x="0%" y="0%" width="100%" height="100%">
      <feTurbulence type="fractalNoise" baseFrequency="0.75" numOctaves="4" stitchTiles="stitch" result="noise"/>
      <feColorMatrix type="saturate" values="0"/>
      <feComponentTransfer>
        <feFuncA type="linear" slope="0.08"/>
      </feComponentTransfer>
    </filter>
  </defs>
  <rect width="1200" height="630" fill="#050505"/>
  <rect width="1200" height="630" fill="url(#bg-radial-a)"/>
  <ellipse cx="300" cy="180" rx="280" ry="200" fill="#ffffff" fill-opacity="0.025"/>
  <ellipse cx="920" cy="460" rx="320" ry="220" fill="#ffffff" fill-opacity="0.02"/>
  <rect width="1200" height="630" filter="url(#grain)" opacity="0.55"/>

  <g transform="translate(600 250)">
    <rect x="-96" y="-96" width="192" height="192" rx="34" fill="url(#badge-bg)" stroke="#3a3a3a" stroke-width="3"/>
    <rect x="-96" y="-96" width="192" height="192" rx="34" fill="url(#chrome-shine)"/>
    <rect x="-72" y="-88" width="144" height="6" rx="3" fill="#ffffff" fill-opacity="0.08"/>
    <path fill="#c9c9c9" transform="translate(-80 -80) scale(0.3125)" d="M184.2 86.1c0-1.3 1-2.4 2.3-2.4h29.4c1.3 0 2.3 1.1 2.3 2.4v8.6c0 1.3-1 2.4-2.3 2.4h-29.4c-1.3 0-2.3-1.1-2.3-2.4v-8.6zm-56.6 0c0-1.3 1-2.4 2.3-2.4h29.4c1.3 0 2.3 1.1 2.3 2.4v8.6c0 1.3-1 2.4-2.3 2.4H129.9c-1.3 0-2.3-1.1-2.3-2.4v-8.6zM352 360c0 57.6-46.4 104.1-103.7 104.1S144.6 417.6 144.6 360s46.4-104.1 103.7-104.1S352 302.4 352 360zm-166.3-60.8c0 12.9 10.4 23.4 23.4 23.4s23.4-10.5 23.4-23.4S221.9 276 209 276s-23.4 10.4-23.4 23.2zm239.7-118.5C415.5 128.4 358.7 96 297.8 96c-42.5 0-81.5 16.7-110.6 44.1-15.2 14.3-27.9 31.3-37.1 50-12.6 24.8-17.9 52.8-15.5 81.1 2.5 28.9 13.8 56.3 32.1 78.4 18.3 22.1 43.2 38.5 71.4 46.8 7.3 2.3 14.8 4 22.4 5.1 2.3 .3 4.6 .6 6.9 .8 1.2 .1 2.4 .2 3.6 .3h.3c1.1 .1 2.2 .1 3.3 .2 57.6 2.9 108.3-38.8 114.9-96.2 3.3-29.1-3.4-58.4-18.8-83.2z"/>
  </g>

  <text x="600" y="420" text-anchor="middle" fill="#c9c9c9" font-family="Impact, Arial Black, sans-serif" font-size="52" font-weight="400" letter-spacing="-1">LES 4 TEMPÉRAMENTS</text>
  <text x="600" y="468" text-anchor="middle" fill="#888888" font-family="Arial, sans-serif" font-size="24" letter-spacing="2">DÉCOUVRE TON TYPE DE PERSONNALITÉ</text>
  <text x="600" y="520" text-anchor="middle" fill="#666666" font-family="Arial, sans-serif" font-size="18">30 questions • 8 min • 100 % anonyme</text>
</svg>